<svg xmlns="http://www.w3.org/2000/svg" xmlns:xlink="http://www.w3.org/1999/xlink" version="1.1" width="256" height="256" viewBox="0 0 256 256" xml:space="preserve">

<defs>
</defs>
<g style="stroke: none; stroke-width: 0; stroke-dasharray: none; stroke-linecap: butt; stroke-linejoin: miter; stroke-miterlimit: 10; fill: none; fill-rule: nonzero; opacity: 1;" transform="translate(1.4065934065934016 1.4065934065934016) scale(2.81 2.81)" >
	<path d="M 45 2.025 L 45 2.025 c -1.398 0 -2.649 0.778 -3.268 2.031 L 29.959 27.912 c -0.099 0.2 -0.29 0.338 -0.51 0.37 L 3.122 32.108 c -1.383 0.201 -2.509 1.151 -2.941 2.48 s -0.079 2.76 0.922 3.736 l 19.049 18.569 c 0.16 0.156 0.233 0.38 0.195 0.599 L 15.85 83.711 c -0.236 1.377 0.319 2.743 1.449 3.564 c 1.129 0.821 2.6 0.927 3.839 0.279 l 23.547 -12.381 c 0.098 -0.051 0.206 -0.077 0.314 -0.077 C 51.722 53.906 50.302 28.879 45 2.025 z" style="stroke: none; stroke-width: 1; stroke-dasharray: none; stroke-linecap: butt; stroke-linejoin: miter; stroke-miterlimit: 10; fill: rgb(255,182,43); fill-rule: nonzero; opacity: 1;" transform=" matrix(1 0 0 1 0 0) " stroke-linecap="round" />
	<path d="M 45 2.025 L 45 2.025 c 1.398 0 2.649 0.778 3.268 2.031 l 11.773 23.856 c 0.099 0.2 0.29 0.338 0.51 0.37 l 26.326 3.826 c 1.383 0.201 2.509 1.151 2.941 2.48 s 0.079 2.76 -0.922 3.736 L 69.848 56.893 c -0.16 0.156 -0.233 0.38 -0.195 0.599 l 4.498 26.219 c 0.236 1.377 -0.319 2.743 -1.449 3.564 c -1.129 0.821 -2.6 0.927 -3.839 0.279 L 45.315 75.173 c -0.098 -0.051 -0.206 -0.077 -0.314 -0.077 C 37.08 54.594 38.849 29.396 45 2.025 z" style="stroke: none; stroke-width: 1; stroke-dasharray: none; stroke-linecap: butt; stroke-linejoin: miter; stroke-miterlimit: 10; fill: rgb(250,194,43); fill-rule: nonzero; opacity: 1;" transform=" matrix(1 0 0 1 0 0) " stroke-linecap="round" />
	<ellipse cx="27.1" cy="50.050999999999995" rx="4.37" ry="6.001" style="stroke: none; stroke-width: 1; stroke-dasharray: none; stroke-linecap: butt; stroke-linejoin: miter; stroke-miterlimit: 10; fill: rgb(255,135,152); fill-rule: nonzero; opacity: 1;" transform=" matrix(0.5 -0.866 0.866 0.5 -29.7938 48.4965) "/>
	<ellipse cx="62.900999999999996" cy="50.05" rx="6.001" ry="4.37" style="stroke: none; stroke-width: 1; stroke-dasharray: none; stroke-linecap: butt; stroke-linejoin: miter; stroke-miterlimit: 10; fill: rgb(255,135,152); fill-rule: nonzero; opacity: 1;" transform=" matrix(0.866 -0.5 0.5 0.866 -16.5985 38.1544) "/>
	<path d="M 53.942 59.902 c -0.485 0 -0.962 -0.235 -1.251 -0.671 c -1.719 -2.59 -4.595 -4.137 -7.691 -4.137 c -3.096 0 -5.972 1.547 -7.692 4.138 c -0.458 0.689 -1.389 0.877 -2.079 0.42 c -0.69 -0.459 -0.878 -1.39 -0.42 -2.08 c 2.277 -3.43 6.087 -5.478 10.191 -5.478 c 4.104 0 7.914 2.048 10.191 5.479 c 0.458 0.689 0.27 1.621 -0.421 2.079 C 54.516 59.821 54.228 59.902 53.942 59.902 z" style="stroke: none; stroke-width: 1; stroke-dasharray: none; stroke-linecap: butt; stroke-linejoin: miter; stroke-miterlimit: 10; fill: rgb(63,70,72); fill-rule: nonzero; opacity: 1;" transform=" matrix(1 0 0 1 0 0) " stroke-linecap="round" />
	<path d="M 30.17 46.438 c -0.829 0 -1.5 -0.672 -1.5 -1.5 v -3.365 c 0 -0.829 0.671 -1.5 1.5 -1.5 s 1.5 0.671 1.5 1.5 v 3.365 C 31.67 45.766 30.999 46.438 30.17 46.438 z" style="stroke: none; stroke-width: 1; stroke-dasharray: none; stroke-linecap: butt; stroke-linejoin: miter; stroke-miterlimit: 10; fill: rgb(63,70,72); fill-rule: nonzero; opacity: 1;" transform=" matrix(1 0 0 1 0 0) " stroke-linecap="round" />
	<path d="M 59.829 46.438 c -0.828 0 -1.5 -0.672 -1.5 -1.5 v -3.365 c 0 -0.829 0.672 -1.5 1.5 -1.5 s 1.5 0.671 1.5 1.5 v 3.365 C 61.329 45.766 60.657 46.438 59.829 46.438 z" style="stroke: none; stroke-width: 1; stroke-dasharray: none; stroke-linecap: butt; stroke-linejoin: miter; stroke-miterlimit: 10; fill: rgb(63,70,72); fill-rule: nonzero; opacity: 1;" transform=" matrix(1 0 0 1 0 0) " stroke-linecap="round" />
</g>
</svg>