<svg xmlns="http://www.w3.org/2000/svg" xmlns:xlink="http://www.w3.org/1999/xlink" version="1.1" width="256" height="256" viewBox="0 0 256 256" xml:space="preserve">

<defs>
</defs>
<g style="stroke: none; stroke-width: 0; stroke-dasharray: none; stroke-linecap: butt; stroke-linejoin: miter; stroke-miterlimit: 10; fill: none; fill-rule: nonzero; opacity: 1;" transform="translate(1.4065934065934016 1.4065934065934016) scale(2.81 2.81)" >
	<ellipse cx="38.9" cy="22.219" rx="5.37" ry="14.909" style="stroke: none; stroke-width: 1; stroke-dasharray: none; stroke-linecap: butt; stroke-linejoin: miter; stroke-miterlimit: 10; fill: rgb(240,240,240); fill-rule: nonzero; opacity: 1;" transform=" matrix(1 0 0 1 0 0) "/>
	<path d="M 54.337 11.171 c 1.083 2.728 1.763 6.666 1.763 11.046 c 0 4.38 -0.68 8.318 -1.763 11.046 l 12.791 -3.2 c 0.509 -2.279 0.803 -4.967 0.803 -7.845 c 0 -2.878 -0.294 -5.566 -0.803 -7.845 L 54.337 11.171 z" style="stroke: none; stroke-width: 1; stroke-dasharray: none; stroke-linecap: butt; stroke-linejoin: miter; stroke-miterlimit: 10; fill: rgb(242,68,68); fill-rule: nonzero; opacity: 1;" transform=" matrix(1 0 0 1 0 0) " stroke-linecap="round" />
	<path d="M 38.899 37.125 c 2.966 0 5.37 -6.675 5.37 -14.909 s -2.404 -14.909 -5.37 -14.909 l 15.437 3.863 c 1.083 2.728 1.763 6.666 1.763 11.046 c 0 4.38 -0.68 8.318 -1.763 11.046 L 38.899 37.125 z" style="stroke: none; stroke-width: 1; stroke-dasharray: none; stroke-linecap: butt; stroke-linejoin: miter; stroke-miterlimit: 10; fill: rgb(249,249,249); fill-rule: nonzero; opacity: 1;" transform=" matrix(1 0 0 1 0 0) " stroke-linecap="round" />
	<path d="M 67.128 30.062 c 0.509 -2.279 0.803 -4.967 0.803 -7.845 c 0 -2.878 -0.294 -5.566 -0.803 -7.845 v 0 l 9.915 2.481 c 1.064 3.576 1.064 7.152 0 10.728 L 67.128 30.062" style="stroke: none; stroke-width: 1; stroke-dasharray: none; stroke-linecap: butt; stroke-linejoin: miter; stroke-miterlimit: 10; fill: rgb(249,249,249); fill-rule: nonzero; opacity: 1;" transform=" matrix(1 0 0 1 0 0) " stroke-linecap="round" />
	<path d="M 38.899 36.103 c -0.164 0 -0.33 -0.039 -0.484 -0.122 L 14.545 23.117 c -0.331 -0.178 -0.537 -0.524 -0.537 -0.9 s 0.206 -0.722 0.537 -0.9 L 38.414 8.453 c 0.497 -0.268 1.118 -0.081 1.386 0.415 c 0.268 0.497 0.082 1.118 -0.415 1.386 L 17.187 22.217 l 22.198 11.963 c 0.497 0.268 0.683 0.888 0.415 1.386 C 39.615 35.908 39.263 36.103 38.899 36.103 z" style="stroke: none; stroke-width: 1; stroke-dasharray: none; stroke-linecap: butt; stroke-linejoin: miter; stroke-miterlimit: 10; fill: rgb(242,68,68); fill-rule: nonzero; opacity: 1;" transform=" matrix(1 0 0 1 0 0) " stroke-linecap="round" />
	<path d="M 20.734 90 V 4.288 C 20.734 1.92 18.815 0 16.447 0 c -2.368 0 -4.288 1.92 -4.288 4.288 V 90 H 20.734 z" style="stroke: none; stroke-width: 1; stroke-dasharray: none; stroke-linecap: butt; stroke-linejoin: miter; stroke-miterlimit: 10; fill: rgb(255,190,0); fill-rule: nonzero; opacity: 1;" transform=" matrix(1 0 0 1 0 0) " stroke-linecap="round" />
</g>
</svg>